<svg xmlns="http://www.w3.org/2000/svg" width="1208" height="604" viewBox="0 0 1208 604" font-family="ui-monospace, SFMono-Regular, Menlo, monospace" font-size="13">
<rect width="1208" height="604" fill="#ffffff"/>
<defs><pattern id="na" width="8" height="8" patternUnits="userSpaceOnUse" patternTransform="rotate(45)"><line x1="0" y1="0" x2="0" y2="8" stroke="#c8c8c8" stroke-width="2"/></pattern></defs>
<text x="16" y="30" font-size="20" font-weight="bold">QUIC parallel: many streams at once [MiB/s]</text>
<text x="16" y="56" fill="#333">Darwin 25.5.0 · arm64 · 16 cpus · docker 29.3.0</text>
<text x="16" y="74" fill="#333">2026-09-15 21:10 UTC · rama 92b3f547e · workload 256 × 8M · 2 runs, median shown</text>
<text x="16" y="110" fill="#555">rows: client · columns: server</text>
<text x="260" y="140" text-anchor="middle">rama-boring</text>
<text x="428" y="140" text-anchor="middle">rama-rustls-ring</text>
<text x="596" y="140" text-anchor="middle">rama-rustls-aws-lc</text>
<text x="764" y="140" text-anchor="middle">quinn</text>
<text x="932" y="140" text-anchor="middle">quic-go</text>
<text x="1100" y="140" text-anchor="middle">ngtcp2</text>
<text x="168" y="182" text-anchor="end">rama-boring</text>
<rect x="176" y="150" width="168" height="54" fill="#2c59f8" stroke="#fff"/>
<text x="260" y="175" text-anchor="middle" font-weight="bold" fill="#111">300</text>
<text x="260" y="193" text-anchor="middle" font-size="10" fill="#111">292 – 308</text>
<rect x="344" y="150" width="168" height="54" fill="#2d5af8" stroke="#fff"/>
<text x="428" y="175" text-anchor="middle" font-weight="bold" fill="#111">299</text>
<text x="428" y="193" text-anchor="middle" font-size="10" fill="#111">295 – 302</text>
<rect x="512" y="150" width="168" height="54" fill="#2452f8" stroke="#fff"/>
<text x="596" y="175" text-anchor="middle" font-weight="bold" fill="#111">309</text>
<text x="596" y="193" text-anchor="middle" font-size="10" fill="#111">308 – 309</text>
<rect x="680" y="150" width="168" height="54" fill="#abbff8" stroke="#fff"/>
<text x="764" y="175" text-anchor="middle" font-weight="bold" fill="#111">171</text>
<text x="764" y="193" text-anchor="middle" font-size="10" fill="#111">166 – 175</text>
<rect x="848" y="150" width="168" height="54" fill="#486ff8" stroke="#fff"/>
<text x="932" y="175" text-anchor="middle" font-weight="bold" fill="#111">271</text>
<text x="932" y="193" text-anchor="middle" font-size="10" fill="#111">271 – 272</text>
<rect x="1016" y="150" width="168" height="54" fill="#698af8" stroke="#fff"/>
<text x="1100" y="175" text-anchor="middle" font-weight="bold" fill="#111">237</text>
<text x="1100" y="193" text-anchor="middle" font-size="10" fill="#111">237 – 238</text>
<text x="168" y="236" text-anchor="end">rama-rustls-ring</text>
<rect x="176" y="204" width="168" height="54" fill="#2f5bf8" stroke="#fff"/>
<text x="260" y="229" text-anchor="middle" font-weight="bold" fill="#111">297</text>
<text x="260" y="247" text-anchor="middle" font-size="10" fill="#111">296 – 298</text>
<rect x="344" y="204" width="168" height="54" fill="#2553f8" stroke="#fff"/>
<text x="428" y="229" text-anchor="middle" font-weight="bold" fill="#111">307</text>
<text x="428" y="247" text-anchor="middle" font-size="10" fill="#111">304 – 310</text>
<rect x="512" y="204" width="168" height="54" fill="#2553f8" stroke="#fff"/>
<text x="596" y="229" text-anchor="middle" font-weight="bold" fill="#111">307</text>
<text x="596" y="247" text-anchor="middle" font-size="10" fill="#111">304 – 311</text>
<rect x="680" y="204" width="168" height="54" fill="#a4baf8" stroke="#fff"/>
<text x="764" y="229" text-anchor="middle" font-weight="bold" fill="#111">177</text>
<text x="764" y="247" text-anchor="middle" font-size="10" fill="#111">177 – 177</text>
<rect x="848" y="204" width="168" height="54" fill="#4d73f8" stroke="#fff"/>
<text x="932" y="229" text-anchor="middle" font-weight="bold" fill="#111">266</text>
<text x="932" y="247" text-anchor="middle" font-size="10" fill="#111">265 – 268</text>
<rect x="1016" y="204" width="168" height="54" fill="#6486f8" stroke="#fff"/>
<text x="1100" y="229" text-anchor="middle" font-weight="bold" fill="#111">243</text>
<text x="1100" y="247" text-anchor="middle" font-size="10" fill="#111">241 – 244</text>
<text x="168" y="290" text-anchor="end">rama-rustls-aws-lc</text>
<rect x="176" y="258" width="168" height="54" fill="#1f4ef8" stroke="#fff"/>
<text x="260" y="283" text-anchor="middle" font-weight="bold" fill="#fff">313</text>
<text x="260" y="301" text-anchor="middle" font-size="10" fill="#fff">310 – 316</text>
<rect x="344" y="258" width="168" height="54" fill="#2352f8" stroke="#fff"/>
<text x="428" y="283" text-anchor="middle" font-weight="bold" fill="#111">309</text>
<text x="428" y="301" text-anchor="middle" font-size="10" fill="#111">306 – 312</text>
<rect x="512" y="258" width="168" height="54" fill="#2754f8" stroke="#fff"/>
<text x="596" y="283" text-anchor="middle" font-weight="bold" fill="#111">306</text>
<text x="596" y="301" text-anchor="middle" font-size="10" fill="#111">299 – 312</text>
<rect x="680" y="258" width="168" height="54" fill="#a7bbf8" stroke="#fff"/>
<text x="764" y="283" text-anchor="middle" font-weight="bold" fill="#111">175</text>
<text x="764" y="301" text-anchor="middle" font-size="10" fill="#111">174 – 175</text>
<rect x="848" y="258" width="168" height="54" fill="#476ef8" stroke="#fff"/>
<text x="932" y="283" text-anchor="middle" font-weight="bold" fill="#111">272</text>
<text x="932" y="301" text-anchor="middle" font-size="10" fill="#111">270 – 275</text>
<rect x="1016" y="258" width="168" height="54" fill="#6486f8" stroke="#fff"/>
<text x="1100" y="283" text-anchor="middle" font-weight="bold" fill="#111">243</text>
<text x="1100" y="301" text-anchor="middle" font-size="10" fill="#111">241 – 245</text>
<text x="168" y="344" text-anchor="end">quinn</text>
<rect x="176" y="312" width="168" height="54" fill="#90a9f8" stroke="#fff"/>
<text x="260" y="337" text-anchor="middle" font-weight="bold" fill="#111">198</text>
<text x="260" y="355" text-anchor="middle" font-size="10" fill="#111">197 – 199</text>
<rect x="344" y="312" width="168" height="54" fill="#91aaf8" stroke="#fff"/>
<text x="428" y="337" text-anchor="middle" font-weight="bold" fill="#111">197</text>
<text x="428" y="355" text-anchor="middle" font-size="10" fill="#111">196 – 198</text>
<rect x="512" y="312" width="168" height="54" fill="#8fa9f8" stroke="#fff"/>
<text x="596" y="337" text-anchor="middle" font-weight="bold" fill="#111">199</text>
<text x="596" y="355" text-anchor="middle" font-size="10" fill="#111">198 – 199</text>
<rect x="680" y="312" width="168" height="54" fill="#e8f0f8" stroke="#fff"/>
<text x="764" y="337" text-anchor="middle" font-weight="bold" fill="#111">107</text>
<text x="764" y="355" text-anchor="middle" font-size="10" fill="#111">107 – 108</text>
<rect x="848" y="312" width="168" height="54" fill="#d9e4f8" stroke="#fff"/>
<text x="932" y="337" text-anchor="middle" font-weight="bold" fill="#111">123</text>
<text x="932" y="355" text-anchor="middle" font-size="10" fill="#111">122 – 124</text>
<rect x="1016" y="312" width="168" height="54" fill="#819df8" stroke="#fff"/>
<text x="1100" y="337" text-anchor="middle" font-weight="bold" fill="#111">213</text>
<text x="1100" y="355" text-anchor="middle" font-size="10" fill="#111">212 – 213</text>
<text x="168" y="398" text-anchor="end">quic-go</text>
<rect x="176" y="366" width="168" height="54" fill="#2352f8" stroke="#fff"/>
<text x="260" y="391" text-anchor="middle" font-weight="bold" fill="#111">309</text>
<text x="260" y="409" text-anchor="middle" font-size="10" fill="#111">308 – 310</text>
<rect x="344" y="366" width="168" height="54" fill="#2754f8" stroke="#fff"/>
<text x="428" y="391" text-anchor="middle" font-weight="bold" fill="#111">306</text>
<text x="428" y="409" text-anchor="middle" font-size="10" fill="#111">305 – 307</text>
<rect x="512" y="366" width="168" height="54" fill="#2654f8" stroke="#fff"/>
<text x="596" y="391" text-anchor="middle" font-weight="bold" fill="#111">307</text>
<text x="596" y="409" text-anchor="middle" font-size="10" fill="#111">304 – 309</text>
<rect x="680" y="366" width="168" height="54" fill="#a1b7f8" stroke="#fff"/>
<text x="764" y="391" text-anchor="middle" font-weight="bold" fill="#111">180</text>
<text x="764" y="409" text-anchor="middle" font-size="10" fill="#111">177 – 184</text>
<rect x="848" y="366" width="168" height="54" fill="#5176f8" stroke="#fff"/>
<text x="932" y="391" text-anchor="middle" font-weight="bold" fill="#111">263</text>
<text x="932" y="409" text-anchor="middle" font-size="10" fill="#111">262 – 263</text>
<rect x="1016" y="366" width="168" height="54" fill="#7997f8" stroke="#fff"/>
<text x="1100" y="391" text-anchor="middle" font-weight="bold" fill="#111">221</text>
<text x="1100" y="409" text-anchor="middle" font-size="10" fill="#111">220 – 223</text>
<text x="168" y="452" text-anchor="end">ngtcp2</text>
<rect x="176" y="420" width="168" height="54" fill="#b0c3f8" stroke="#fff"/>
<text x="260" y="445" text-anchor="middle" font-weight="bold" fill="#111">165</text>
<text x="260" y="463" text-anchor="middle" font-size="10" fill="#111">165 – 165</text>
<rect x="344" y="420" width="168" height="54" fill="#aec1f8" stroke="#fff"/>
<text x="428" y="445" text-anchor="middle" font-weight="bold" fill="#111">167</text>
<text x="428" y="463" text-anchor="middle" font-size="10" fill="#111">166 – 169</text>
<rect x="512" y="420" width="168" height="54" fill="#aec1f8" stroke="#fff"/>
<text x="596" y="445" text-anchor="middle" font-weight="bold" fill="#111">168</text>
<text x="596" y="463" text-anchor="middle" font-size="10" fill="#111">167 – 168</text>
<rect x="680" y="420" width="168" height="54" fill="#c8d6f8" stroke="#fff"/>
<text x="764" y="445" text-anchor="middle" font-weight="bold" fill="#111">141</text>
<text x="764" y="463" text-anchor="middle" font-size="10" fill="#111">128 – 154</text>
<rect x="848" y="420" width="168" height="54" fill="#c5d4f8" stroke="#fff"/>
<text x="932" y="445" text-anchor="middle" font-weight="bold" fill="#111">144</text>
<text x="932" y="463" text-anchor="middle" font-size="10" fill="#111">144 – 144</text>
<rect x="1016" y="420" width="168" height="54" fill="#b8c9f8" stroke="#fff"/>
<text x="1100" y="445" text-anchor="middle" font-weight="bold" fill="#111">157</text>
<text x="1100" y="463" text-anchor="middle" font-size="10" fill="#111">155 – 159</text>
<text x="16" y="504" fill="#555" font-size="12">loopback bridge on one host through one forwarding container; higher is better</text>
<text x="16" y="522" fill="#555" font-size="12">compares pairs on this host only</text>
<text x="16" y="540" fill="#555" font-size="12">Docker runs in a virtual machine on this host; absolute numbers reflect its network path</text>
</svg>
