<?xml version="1.0" encoding="UTF-8" standalone="no"?>
<!-- Created with Inkscape (http://www.inkscape.org/) -->

<svg
   style="background-color:white; border: 3px solid white;"
   width="240mm"
   height="43.875999mm"
   viewBox="0 0 243.46805 46.876021"
   version="1.1"
   id="svg1"
   xml:space="preserve"
   inkscape:export-filename="bitmap.svg"
   inkscape:export-xdpi="60.476189"
   inkscape:export-ydpi="60.476189"
   xmlns:inkscape="http://www.inkscape.org/namespaces/inkscape"
   xmlns:sodipodi="http://sodipodi.sourceforge.net/DTD/sodipodi-0.dtd"
   xmlns="http://www.w3.org/2000/svg"
   xmlns:svg="http://www.w3.org/2000/svg"><sodipodi:namedview
     id="namedview1"
     pagecolor="white"
     bordercolor="#eeeeee"
     borderopacity="1"/><defs
     id="defs1" /><g
     inkscape:label="Layer 1"
     inkscape:groupmode="layer"
     id="layer1"
     transform="translate(-4.3805333,-126.34886)"><path
       style="fill:#000000;stroke:none;stroke-width:0.904975"
       d="m 97.612532,145.39009 c 0.496578,-1.46401 0.311764,-2.81207 0.425067,-4.31056 0.233882,-3.09322 0.63551,-6.01083 0.05385,-9.09816 1.546848,-0.22845 2.856611,-0.92273 4.469571,-0.51718 2.04496,0.51416 5.98424,3.157 3.72981,5.59114 -1.46943,1.58656 -5.25568,1.83946 -7.241618,1.47078 l -0.159629,0.6385 c 1.759357,0.79772 3.777717,3.02198 5.010907,4.49667 0.58229,0.69635 1.48459,2.41393 2.48616,2.54013 1.20494,0.15182 -0.52971,-2.00245 -0.71512,-2.24809 -1.27458,-1.68864 -3.25133,-3.88665 -5.18567,-4.78871 2.38993,-0.71304 5.856,-0.31185 7.26946,-2.90027 0.77689,-1.42268 -0.59323,-3.14112 -1.68028,-3.88476 -2.15743,-1.47588 -4.34593,-1.78287 -6.8662,-1.09399 -0.481655,0.13166 -1.593254,0.26429 -1.932529,0.6342 -0.532669,0.58077 -0.05466,1.79738 0.07946,2.45599 0.303203,1.48893 0.09032,3.27011 0.06036,4.7865 -0.03113,1.57283 -0.237909,3.05534 -0.15618,4.63154 0.03439,0.6632 -0.246126,1.15942 0.352632,1.59627 m -19.155311,-13.8876 0.159628,0.15962 -0.159628,-0.15962 m 0.319256,0 v 0.15962 h 0.798137 l -0.798137,-0.15962 m 1.27702,0 -1.915531,0.15962 0.159627,0.31926 h -0.159627 l -0.63851,-0.31926 v 0.15963 h 0.319254 v 0.15963 l -4.788827,0.15963 c -0.967933,0.90726 -4.440828,0.28143 -5.743638,0.32591 -5.1044,0.17424 -10.432084,-0.69585 -15.327207,1.11074 v 0.31926 c 2.639535,1.22712 5.941876,1.09455 8.781857,1.00395 3.833191,-0.1223 7.649147,-0.28401 11.490849,-0.15729 1.247043,0.0411 2.614769,-0.15422 3.831063,0.1111 l -1.117394,0.95776 v 0.47889 l -0.319254,-0.15963 v 0.47888 l -2.392199,2.07122 -5.74881,5.91016 0.159628,0.31926 -0.798139,0.31926 v 0.47888 l -0.319254,-0.15963 -3.782291,4.1991 -1.166165,1.22824 -1.596277,2.23478 c -0.658619,0.21662 -1.325408,0.91685 -1.436648,1.59628 l -0.957765,0.31926 -0.159628,0.31925 -1.596276,2.71367 h -0.159628 c -0.645589,-0.91649 -1.712285,-2.24602 -2.873297,-2.39441 l -0.159628,-0.15963 0.159628,-0.31926 c -0.749282,-0.0599 -1.488982,-1.17038 -2.157681,-0.95677 -1.403104,0.44821 0.283303,2.54545 0.73532,3.03194 1.516536,1.63218 3.149435,3.29267 4.815928,4.76886 0.786038,0.69629 2.214103,1.70042 2.512655,2.73363 1.286963,0.3797 3.251107,2.96349 3.831062,4.15031 h 0.159582 l -0.159633,-0.31924 h 0.159627 l 0.638511,0.95776 c 0.563792,0.45773 1.921767,1.54348 2.554042,0.63851 1.241104,-0.22719 1.258397,-2.32673 0,-2.55405 l -0.638511,-0.79813 -0.478882,0.31926 -0.319256,-0.15963 0.159628,-0.47889 -0.638511,0.15963 -0.319254,-0.95776 -0.478883,0.15963 c -0.708183,-1.58895 -2.304673,-2.78349 -3.511808,-3.9907 -0.390929,-0.39095 -1.252751,-0.98835 -1.270615,-1.59628 -0.03125,-1.06348 1.406426,-2.02016 1.430243,-3.19254 l 1.27702,-1.43665 0.957767,-1.43665 -0.159628,-0.31926 3.99069,-3.83106 -0.159628,-0.31925 c 1.162036,-0.45597 2.820691,-1.92918 3.032925,-3.19256 l 0.159627,-0.15963 0.319256,0.15963 0.957765,-1.11739 0.798139,-0.79814 0.159627,-0.15963 c 0.295614,-2.36553 4.056991,-3.73722 5.108084,-5.74659 l 0.319255,0.15963 c 1.566959,-1.79644 3.607424,-3.42099 5.746594,-4.46958 l -0.159628,0.31926 c 1.324294,-0.89709 1.239872,-1.62693 0.957766,-3.03293 l -2.075159,-0.31925 m -53.47525,0.31925 0.159627,0.15963 -0.159627,-0.15963 m -11.97207,1.59628 v 0.31926 c 3.765467,0.92765 7.960026,0.38642 11.813059,1.06517 1.328894,0.23409 3.441924,0.17783 4.468957,1.16961 l 1.596276,-0.15963 v -0.47888 l 0.478882,0.15963 v -0.79814 h 0.159628 v 0.31926 h 0.159628 l -0.159628,-0.63852 0.319255,0.15963 -0.319255,-0.31925 c 0.302167,-0.35805 0.360193,-0.64117 -0.159628,-0.63851 l 0.159628,-0.63852 -0.478882,-0.47887 h -1.277022 v -0.15963 H 31.68633 V 132.141 l -0.478883,0.31926 c -5.090889,-0.9451 -11.670255,-0.71149 -16.60127,0.95776 m 17.718664,-0.95776 -0.159627,0.15963 0.159627,-0.15963 m 0.904558,1.2238 -0.05321,0.10643 0.05321,-0.10643 m -6.172269,0.85135 -0.159628,0.15963 0.159628,-0.15963 m 49.005677,0.63852 -0.159628,0.15962 0.159628,-0.15962 m -45.653497,0.15962 -0.159628,0.15963 0.159628,-0.15963 m 45.334242,0 -0.159628,0.15963 0.159628,-0.15963 m -45.014987,0.15963 -0.159628,0.15963 0.159628,-0.15963 m 1.755904,0 -0.159628,0.15963 0.159628,-0.15963 m -0.478883,0.31925 0.159628,0.15963 -0.159628,-0.15963 m 42.460945,0.79814 -0.478883,0.47889 0.478883,-0.47889 m 35.277699,2.55404 c 1.25869,-0.054 2.59906,-0.4315 3.84534,-0.0832 2.7938,0.78065 3.10885,3.91833 2.53976,6.30873 l -0.47888,-0.31925 c -0.91371,0.4834 -3.53275,0.64212 -4.46896,0.16775 -1.94656,-0.98629 -0.95071,-2.79566 0.63802,-3.41068 0.46785,-0.18111 0.94442,-0.42212 1.43652,-0.52593 0.84565,-0.17841 1.72689,0.0966 2.55405,0.25705 -0.14605,-0.68152 -1.14367,-0.63285 -1.7559,-0.63851 -1.63026,-0.0151 -3.8134,0.76921 -4.70903,2.23478 -0.22971,0.37593 -0.14148,0.70765 -0.0931,1.1174 0.35252,2.98603 4.04273,1.25966 6.07916,1.55194 0.51494,0.0739 0.93664,0.52528 1.43664,0.68284 0.49437,-1.66874 1.00554,-4.81219 0.007,-6.35738 -1.18551,-1.83481 -3.26634,-1.66813 -5.11522,-1.49147 -0.72585,0.0693 -1.44781,-0.14256 -1.91553,0.50598 m 34.95844,5.58697 c -1.65374,-0.27964 -3.29387,0.53763 -4.94784,-0.22602 -2.85938,-1.32018 -0.83946,-3.30088 1.43604,-3.43051 1.0569,-0.0602 2.03379,0.53357 3.03292,0.46398 -1.47341,-2.06653 -8.10135,-0.36661 -6.71359,2.70492 1.02417,2.26683 4.85371,0.53586 6.53894,0.87192 0.57159,0.11398 0.83024,1.27956 1.40955,1.09202 0.46149,-0.1494 0.25971,-0.82485 0.20175,-1.15705 1.12081,0.35394 0.53261,-1.12922 0.31926,-0.63851 -0.61997,-1.74875 0.17624,-4.41265 -1.92182,-5.41539 -1.42912,-0.68302 -3.86986,-0.63345 -5.42105,-0.51227 -0.30439,0.0238 -1.88935,-0.25262 -1.63594,0.43368 0.12782,0.34619 0.587,0.19368 0.83854,0.12736 1.0014,-0.26402 2.00611,-0.1693 3.03218,-0.06 3.12218,0.33265 4.21114,2.7453 3.83106,5.74585 m -22.82675,-5.74659 -0.15963,6.86399 c 1.01573,0.1552 0.851,-1.16554 0.9313,-1.91553 0.18752,-1.75156 0.64119,-3.87907 2.58052,-4.46958 0.54299,1.66591 0.73832,3.05499 0.88264,4.78945 0.0263,0.31665 -0.0982,1.57656 0.54206,1.36238 0.50679,-0.16953 0.34038,-0.96966 0.33342,-1.363 -0.0188,-1.06762 0.20951,-5.55511 2.38763,-4.47475 1.44735,0.7179 1.82653,3.37939 1.78042,4.794 -0.03,0.92261 -0.37436,2.14292 0.77818,2.39442 -0.0352,-1.9675 0.53017,-4.72745 -0.39204,-6.54461 -1.11928,-2.20548 -4.01281,-1.29772 -4.55641,0.79802 h -0.15963 c -0.0249,-2.97257 -3.25654,-2.49675 -3.83106,0 -0.39715,-0.82528 -0.0332,-2.05385 -1.1174,-2.23479 m -83.48523,1.11739 v 0.15963 h 0.319255 v 0.15963 l -0.478883,-0.31926 -2.554041,0.47888 c -2.121762,-0.7722 -4.662283,-0.0876 -6.864604,-0.005 -4.495896,0.16707 -8.952223,0.0109 -13.435201,0.43197 -1.479897,0.13899 -5.077525,-0.25357 -6.038752,1.01047 -0.7672848,-0.1859 -1.9732544,0.16207 -2.2347866,0.95778 l 4.6292006,0.15962 v -0.31925 c 2.834262,0.62159 6.066323,-0.24654 8.939147,-0.31692 5.780387,-0.14162 11.60358,0.10514 17.39941,-0.003 l -0.478883,2.39441 c 0.379948,5.3611 -1.730519,10.88431 -5.202308,15.005 -0.961545,1.14127 -2.561646,3.11236 -4.056094,3.5118 3e-6,0.58169 -1.210542,1.03856 -1.755903,0.95777 l -0.957766,0.79814 -0.478883,-0.15963 c 2e-6,0.71542 -1.950523,0.91339 -2.554042,1.11739 -2.262736,0.76488 -6.558387,1.531 -8.779518,0.47889 -0.16565,0.3313 -1.895661,0.23977 -1.755904,-0.31926 l -0.638511,0.15963 -0.159628,-0.47888 h -0.159497 c 0.11156,0.55779 -0.408281,0.3561 -0.319255,0 l -0.478883,0.15962 -0.3192552,-0.6385 H 9.8173472 L 9.498092,165.82243 8.8595816,165.18391 H 8.699954 l -2.2347866,0.95777 0.6385105,1.27703 c 4.4602711,1.6387 9.1607881,2.24564 13.8876021,1.44932 1.240644,-0.209 3.711296,-0.34143 4.469573,-1.44932 l 1.277021,-0.47889 c 0.934881,0.0619 2.411523,-0.7771 2.873298,-1.59628 l 0.798138,-0.47888 1.117393,-0.15963 0.957766,-0.79813 0.478882,-0.63852 0.638511,-1.27702 c 0.786122,-0.0477 1.223774,-0.69128 1.277021,-1.43665 l 0.478883,0.15963 c 0.826587,-1.42562 2.386327,-3.38974 2.234786,-5.10808 0.449952,0 0.420401,-0.22683 0.319255,-0.63851 l 0.319256,-0.47888 h 0.319255 l -0.159627,-0.31926 h 0.319254 l 0.159628,-0.31925 -0.159628,-0.47889 0.638511,-0.79813 0.159628,-0.47889 0.782987,-4.6563 0.494033,-2.68657 c -0.09976,-0.97075 0.229299,-2.67586 1.117393,-3.19255 v -0.15962 l -0.478882,-0.63852 v -0.15963 l 0.319255,-0.31925 -0.478882,0.15962 -0.159628,-0.6385 -2.713669,0.31925 m -1.915532,0.31925 -0.159628,0.15963 0.159628,-0.15963 m 5.267711,0.15963 0.159627,0.15963 -0.159627,-0.15963 m 81.09083,0.63852 -0.15963,0.15963 0.15963,-0.15963 m -81.250457,0.79813 0.159627,0.15963 -0.159627,-0.15963 m 26.178928,1.59628 -0.159628,0.15963 0.159628,-0.15963 m 2.234787,0.79814 -0.159628,0.15962 0.159628,-0.15962 m 74.865342,0.47888 -0.15963,0.15963 0.15963,-0.15963 m -106.950493,0.63851 -0.159627,0.15963 0.159627,-0.15963 m 28.09446,0.15963 -0.319255,0.31925 0.319255,-0.31925 m -0.478882,0.47888 -0.159628,0.15963 0.159628,-0.15963 m 2.234786,0.63851 -0.63851,0.63851 0.63851,-0.63851 m -3.35218,0.31926 -0.159628,0.15963 0.159628,-0.15963 m 2.394414,0.6385 -0.478883,0.31926 v -0.15963 l 0.478883,-0.15963 m -3.192552,0.15963 -0.478883,0.47889 0.478883,-0.47889 m 2.713669,0.31926 -1.117393,1.27702 1.117393,-1.27702 m -3.511807,0.47889 -0.159627,0.15962 0.159627,-0.15962 m -0.478883,0.6385 -0.159627,0.15963 0.159627,-0.15963 m 45.493868,0.15963 c -0.88375,0.83879 -0.31277,1.95427 -0.33982,3.03293 -0.0232,0.92388 -0.37861,1.79949 -0.45832,2.71366 1.22623,-0.26739 1.0882,-1.91098 1.51856,-2.87255 0.23352,-0.52179 0.72537,-0.81953 1.03548,-1.27776 l -1.11739,0.47888 -0.63851,-2.07516 m -11.17393,1.75591 -0.478886,-0.47889 c 2.635686,-2.34393 5.413466,1.63773 3.448988,3.98195 -0.812514,0.96956 -1.872865,0.75993 -2.970102,0.96651 0.675844,-1.81267 1.733987,-3.61873 1.596277,-5.58697 -0.852686,0.31351 -0.772098,0.97503 -1.013319,1.7559 -0.461963,1.49543 -1.687137,3.19859 -1.221473,4.78883 1.175907,-0.65458 2.760048,-0.56921 3.803847,-1.3806 2.401848,-1.86708 1.716398,-4.99395 -1.249807,-5.58253 -0.88627,-0.17587 -3.496744,0.55212 -1.915525,1.5358 m 71.83242,3.19255 -0.95776,0.63851 0.95776,-0.31926 -0.15963,3.9907 h -0.15963 l -0.15963,-1.43665 h -0.15963 c -0.1856,0.85908 0.0535,2.49794 0.79815,3.03291 l 0.73483,-5.55296 1.02107,-1.15139 -1.1174,0.47888 c 0,-1.03822 -0.16102,-2.27656 0.43541,-3.19194 0.63727,-0.97802 1.5966,-1.41278 2.27827,-0.31987 0.34593,-1.30073 -1.46861,-0.95852 -2.06876,-0.44242 -1.29942,1.11745 -1.44305,2.67786 -1.44305,4.27349 m -103.757944,-4.46957 -0.159628,0.15962 0.159628,-0.15962 m -3.032925,0.15962 -0.478883,0.47888 0.478883,-0.47888 m 55.710029,5.42734 c 0.0613,-1.42783 -0.14202,-4.34303 2.07516,-3.83107 l 0.15963,-0.15962 c -0.72691,-0.60789 -1.38089,-0.1377 -2.07516,0.31925 l -0.31925,-1.7559 c -1.01474,0.7114 -1.13471,4.99808 0.15962,5.42734 m -14.52611,-5.26772 -0.31925,0.63852 0.79813,-0.15963 v -0.31926 l -0.47888,-0.15963 m 17.55904,0.47889 -0.15963,0.63851 h 0.79814 l -0.63851,-0.63851 m 52.83674,0 -1.27702,4.94846 0.63851,0.15963 c 0.57376,-1.98788 1.75485,-3.88853 3.99068,-3.9907 v -0.31925 c -1.22524,0.0534 -2.12862,0.45417 -3.03292,1.27702 v -2.07516 h -0.31925 m -13.24909,4.46957 0.15963,-0.47888 -1.1174,0.95777 c 1.4531,-0.18365 2.88273,0.0265 4.15032,-0.79814 0.28605,1.78872 3.01843,0.0377 3.41611,-0.96405 0.60469,-1.52323 -0.86685,-2.22351 -2.12171,-1.51708 -0.71285,0.4013 -0.70853,1.45621 -0.97515,2.16187 h -0.15962 l -2.71368,-2.23478 1.75591,-0.47889 c -0.81669,-0.089 -3.01461,0.38965 -2.20374,1.68903 0.42083,0.67437 1.48384,0.33491 1.92414,0.94397 0.62542,0.86513 -1.74452,0.79144 -2.11481,0.71918 m -99.926885,-3.35218 -0.319255,0.31926 0.319255,-0.31926 m 127.063575,0 -1.59628,1.59628 h -0.15963 l -0.47887,-0.63851 -0.15963,2.8733 c 0.98978,-0.33927 0.52165,-1.21744 0.94938,-1.94201 0.42002,-0.71152 1.22445,-1.12117 1.76429,-1.72943 l -0.31926,-0.15963 m -85.08151,3.67144 c 0.89119,-0.57919 1.18201,-2.51355 0.95775,-3.51181 -0.92187,0.50794 -1.23321,2.5527 -0.95775,3.51181 m 1.59627,0.31926 0.15963,-0.63852 h -0.15963 l -0.31926,0.79814 c 0.66806,0.23633 3.37619,0.11837 3.05042,-1.1116 -0.18784,-0.70919 -1.3462,-1.25222 -1.93303,-1.60207 v -0.15963 l 1.43665,-0.79813 c -0.71259,-0.51755 -2.16763,0.32671 -2.06924,1.26211 0.0825,0.78444 2.94048,1.83354 0.48011,2.29588 -0.2246,0.0422 -0.42525,-0.0131 -0.64565,-0.0461 m 9.57765,-3.35219 v 3.03293 c 1.66831,0.0542 0.0376,-2.8433 2.23479,-3.19256 v -0.31925 l -2.23479,0.47888 m 13.2491,0.31926 h -0.15963 l -0.15963,-0.63851 c -1.16925,0.52114 -0.39928,1.99186 -0.63851,3.03292 1.23329,0.18008 1.0407,-1.82043 1.27702,-2.71367 1.31034,0.61147 1.53386,1.61999 1.91554,2.8733 h 0.31925 c 0.34418,-0.6873 0.62297,-1.34958 0.18229,-2.07282 -0.59544,-0.97722 -2.06507,-1.7273 -2.73633,-0.48122 m 52.99636,-0.79814 c 0.0529,0.40655 0.19607,0.72734 0.30731,1.11752 0.71091,2.4933 -2.08417,-0.0824 -2.54209,-0.15975 -0.48555,2.01844 -1.5993,0.6311 -0.31926,0.47888 l -0.15963,-0.63851 -1.59627,1.59628 c 0.52064,1.01985 1.42546,0.49892 2.07516,-0.15963 h 0.15963 c 1.52435,1.92025 3.72286,-0.51107 2.07515,-2.23479 m -44.05722,6.86398 c 0.99778,-0.5538 0.66626,-2.62779 0.79814,-3.67143 1.50041,0.18963 2.89974,0.13215 3.35218,-1.59628 h 0.15963 l 0.31926,2.07517 h 0.6385 c -0.0628,-1.21854 -0.0333,-2.09014 0.79815,-3.03293 h 0.15962 l 0.47888,0.47888 0.15963,-0.47888 -2.55404,0.15963 -0.15963,0.79813 c -0.9632,-1.09033 -3.79339,-2.36767 -4.60407,-0.31679 -0.20195,0.5109 0.19709,1.0845 0.26407,1.59381 0.16625,1.26425 -0.39127,2.85193 0.18968,3.99069 m 45.81313,-3.99069 0.95776,-0.47887 0.15963,1.11739 0.63851,0.15963 c 0.17484,-0.73437 0.51482,-2.64679 -0.0963,-3.23308 -0.64405,-0.61787 -1.86992,0.11159 -2.04783,0.84506 -0.12964,0.53452 0.21234,1.10121 0.38824,1.58987 m -17.71867,0.63852 c 0.0896,-0.8039 0.40998,-1.40346 1.27703,-1.11739 l -0.31926,-0.31926 0.15963,-0.63851 -0.47889,0.15962 c 0.0466,-0.60284 0.74538,-1.71318 1.45931,-1.01466 1.41397,1.38341 -1.06553,2.685 -2.09782,2.9302 m -27.29632,-0.63852 -0.63851,-2.07515 c 0.85215,-0.26948 1.34521,-0.3128 2.0727,0.28304 0.93002,0.76173 1.26424,1.96278 -0.31656,1.943 -0.37823,-0.005 -0.74737,-0.0822 -1.11763,-0.15089 m -14.11054,-2.07072 c -1.44675,1.14269 -0.55482,4.079 1.58383,2.35981 1.47086,-1.18238 -0.17142,-3.47538 -1.58383,-2.35981 m 59.92367,-0.16406 -0.15963,0.15963 0.15963,-0.15963 m 5.42734,1.27702 c 0.47352,0.50111 0.40648,1.38449 0.99422,1.75209 1.51498,0.94753 4.55785,-0.28574 5.86976,-1.11358 v -0.15962 c -2.31343,0.44096 -3.82452,2.01595 -5.74659,-0.15963 0.86597,-0.2512 1.78716,-0.50067 2.07516,-1.43665 -0.91433,-0.096 -2.81903,0.18702 -3.19255,1.11739 m -67.68211,-1.11739 0.15963,3.03293 h 0.31925 c 0.31158,-0.98326 1.05585,-2.91054 -0.47888,-3.03293 m 61.77588,0 -0.47888,0.95776 0.15963,-0.95776 h 0.31925 m -71.67279,0.95776 c 0.12798,-0.97938 2.25552,0.64038 0.47888,1.38344 -0.18871,0.0789 -0.44123,0.049 -0.63851,0.0532 l 0.47888,-1.11739 c -0.58389,0.33252 -0.73075,0.78354 -0.79814,1.43665 0.93082,-0.003 3.9524,-1.23289 2.05373,-2.32138 -0.45205,-0.25915 -2.3045,-0.12641 -1.57484,0.56547 m 11.81243,1.59628 0.15963,-0.95776 0.63852,0.15962 -0.31926,-0.31925 v -0.15963 l 0.31926,-0.31926 h -0.47889 c 0.29975,-1.79455 2.5681,0.91391 0.63617,1.50489 -0.3081,0.0942 -0.63746,0.0846 -0.95543,0.0914 m 24.58266,-2.39441 0.20287,1.84779 -0.84138,1.50438 0.95776,-0.15963 -0.31925,-0.47887 0.47888,-0.63852 c 1.22158,1.32175 2.50733,0.62823 0.95777,-0.6385 v -0.15963 l 0.79814,-0.95777 c -1.00739,0.40507 -1.3267,0.24234 -2.23479,-0.31925 m 4.30994,2.8733 1.27703,-0.47889 -1.1174,3.83106 c 1.14804,-0.37198 1.24597,-3.26352 1.79347,-4.30995 0.34871,-0.66645 0.80891,-1.15287 0.9202,-1.91552 l -2.07515,2.07515 0.15962,-1.91553 c -1.19856,-0.18301 -1.04968,1.89079 -0.95777,2.71368 m 31.28702,-2.8733 c 0.30355,0.73999 0.27068,1.2171 -0.47888,1.59627 l 0.47888,-1.59627 m 8.30063,0 -1.43664,0.79813 1.43664,-0.79813 m -47.88828,2.55404 c 0.37269,0.17931 0.69338,0.30891 1.11763,0.29757 0.32629,-0.009 0.65485,-0.089 0.95519,-0.21505 2.73856,-1.14958 -0.84652,-3.50273 -1.73152,-1.80197 -0.23255,0.44692 -0.19941,1.21014 -0.3413,1.71945 m 1.43665,-1.91554 0.95776,1.59628 -2.07515,0.15963 0.6385,-0.95776 -0.47887,-0.15963 0.95776,-0.63852 m -85.879651,0.63852 -0.159628,0.15963 0.159628,-0.15963 m -19.634196,0.31925 -0.159628,0.15963 0.159628,-0.15963 m 125.094827,0.10642 -0.0532,0.10642 0.0532,-0.10642 m -125.414083,0.53209 -0.159627,0.15963 0.159627,-0.15963 m 121.955493,0 -0.15963,0.15963 0.15963,-0.15963 m -107.748635,0.47889 -0.159627,0.15963 0.159627,-0.15963 m -14.526113,0.15963 -0.159628,0.15962 0.159628,-0.15962 m 11.972071,0 -0.159628,0.15962 0.159628,-0.15962 m -12.131699,0.47887 -0.159627,0.15963 0.159627,-0.15963 m -0.319254,0.63852 -0.159628,0.15963 0.159628,-0.15963 m 16.441644,0 -0.159628,0.15963 0.159628,-0.15963 m 0.478882,0.47887 -0.159628,0.15963 0.159628,-0.15963 m -17.239782,0.15963 -0.159627,0.15963 0.159627,-0.15963 m 21.868983,0 -0.159628,0.15963 0.159628,-0.15963 m 50.123063,0.47889 c -1.01143,1.14069 -0.65481,3.34091 -0.79875,4.78883 -0.0392,0.39429 -0.42683,1.29004 -0.0558,1.58888 0.92369,0.74396 3.28003,-0.8235 4.04711,-1.26963 0.32369,2.40165 4.32036,2.10147 5.42733,0.47888 -0.91222,0.24951 -2.06392,1.03602 -3.03279,0.84803 -0.99586,-0.19323 -1.9497,-2.01447 -1.33812,-2.9057 0.25757,-0.37535 1.24669,-0.83969 1.28355,-0.0342 0.0245,0.5362 -0.44595,0.21367 -0.58407,0.0167 l -0.79813,0.31925 c 0.55901,1.01363 1.63998,0.56283 2.07515,-0.31925 -1.14775,-1.15992 -2.27299,-1.12716 -2.87329,0.6385 -1.06145,-0.52803 -1.82068,-1.4416 -3.03293,-0.79813 7.2e-4,-1.08443 0.44473,-2.47289 -0.31926,-3.35218 m -72.470925,0.47888 -0.159628,0.15963 0.159628,-0.15963 m 63.212535,1.59628 v -0.15963 l -2.554039,0.79813 c -1.99e-4,-0.29488 -0.406515,-2.91837 -1.021193,-1.83694 -0.468343,0.82396 -0.248823,2.94222 -0.255339,3.91272 -0.0027,0.34223 -0.125221,1.70849 0.578271,1.47569 0.84683,-0.28021 0.339682,-2.26114 0.702686,-2.89165 0.432569,-0.75131 1.804982,-0.95009 2.549614,-1.29832 m -63.691418,-0.79814 -0.159627,0.15962 0.159627,-0.15962 m 88.274068,3.67144 c 0.4494,0.93169 1.18582,1.06694 2.07515,0.6385 0.0209,0.46367 0.50469,1.16678 0.86379,0.44822 0.38873,-0.77783 0.26779,-1.84594 0.57286,-2.683 0.44804,0.40182 0.82757,0.83396 0.97711,1.43665 0.0908,0.36596 -0.0763,1.03819 0.24929,1.30387 0.48534,0.39602 0.80174,-0.49881 0.82893,-0.82561 0.0994,-1.19428 -1.18471,-2.71489 -2.37458,-1.91491 l -0.79814,-0.63852 c -0.29643,0.61599 -0.0554,2.03768 -0.5555,2.43408 -0.57909,0.459 -0.89401,-0.80754 -0.98128,-1.14277 -0.37424,-1.4374 -1.69079,-1.81671 -2.90323,-0.74948 -1.21951,1.07345 -1.57803,3.77806 0.76624,2.7739 0.53337,-0.22847 0.8968,-0.66334 1.27936,-1.08093 m 10.3758,-2.39442 c -0.12653,0.42801 -0.33658,4.01168 0.55153,3.2465 0.87973,-0.75795 0.31317,-1.99174 1.52362,-2.76762 0.21678,0.68386 -0.0451,2.28573 0.32529,2.75173 0.26998,0.33972 0.63496,0.0937 0.75565,-0.22195 0.40696,-1.06447 0.17711,-3.50316 -1.55589,-2.6883 -0.3142,0.14774 -0.55194,0.40611 -0.80207,0.63741 l -0.31926,-0.95777 h -0.47887 m -99.767261,0.15962 -0.159628,0.15963 0.159628,-0.15963 m 117.647891,0.11517 c -1.41063,0.15832 -2.20887,3.17638 -0.47876,3.05695 2.04348,-0.14109 3.00577,-3.34056 0.47876,-3.05695 m -10.85702,3.07739 c -0.23984,1.16192 -1.94185,5.6354 -0.31926,5.90622 l 1.07847,-5.42734 0.51781,-3.35218 c -0.96838,0.65197 -0.74861,2.76677 -2.18613,2.83536 -1.41105,0.0673 -0.2907,-3.03066 -0.97391,-2.78018 -0.83064,0.30453 -1.08088,2.47691 -0.44217,3.01889 0.64489,0.54722 1.68324,0.12141 2.32519,-0.20077 m 19.47456,0 -1.11739,0.31926 v -0.47889 l -0.79813,1.11739 2.8452,-1.12478 -2.36633,-2.06777 1.59628,-0.47888 c -0.72949,-0.46795 -2.4956,0.20967 -2.08907,1.27012 0.28952,0.75524 1.42196,0.77743 1.92944,1.44355 m -126.425059,-2.8733 -0.159628,0.47889 h -0.159591 l 0.319255,-0.47889 m 87.635553,2.8733 c -0.38651,-0.80427 -0.25022,-3.32505 1.25288,-2.76996 1.60116,0.59131 -0.43582,2.55667 -1.25288,2.76996 m 24.58265,-2.39441 v 2.87329 c 1.12796,-0.19405 1.1921,-1.80545 1.59628,-2.71367 h 0.15963 c 0.19563,0.44022 0.37371,1.7977 0.85849,1.9552 1.09547,0.35588 0.59359,-2.04036 -0.22405,-2.38826 -0.53402,-0.22723 -1.09795,0.27004 -1.59221,0.43306 -0.58122,-0.89638 -1.47992,-0.23112 -2.07516,0.31925 l -0.15963,-0.95776 c -0.89489,0.29603 -0.78706,1.89031 -0.81808,2.71355 -0.0117,0.30982 -0.0452,1.06201 0.47814,0.97045 0.53515,-0.0936 0.44336,-1.06622 0.50488,-1.44922 0.12491,-0.77762 0.58948,-1.39053 1.27171,-1.75589 m 4.46958,2.07515 0.47888,-1.43665 -0.47888,0.15963 c 0.93268,-3.31124 3.2187,1.9364 0,1.27702 m -19.2982,-2.27531 c -1.43112,0.58579 -0.79401,3.30007 0.93807,2.64667 1.79075,-0.67553 0.81814,-3.36551 -0.93807,-2.64667 m -23.32238,2.43494 0.47889,-1.91553 c 1.63167,-1.16406 2.82301,1.8741 0.47962,2.05619 -0.34718,0.027 -0.63123,-0.0442 -0.95851,-0.14066 m 24.2634,-2.07516 c -0.20289,0.93316 0.22703,2.50825 -1.27702,1.91553 l 0.47888,-1.27702 -0.6385,0.31926 c 0.10046,-0.89394 0.56038,-1.38805 1.43664,-0.95777 m 23.78451,-0.31925 c 0.17288,1.2701 0.85084,2.34851 -0.95776,2.71367 -0.12934,-0.7669 -0.002,-2.12914 -0.79814,-2.39442 -0.16477,0.51529 -0.37956,1.05304 -0.42395,1.59627 -0.18881,2.31049 3.53061,0.88032 3.16743,-0.77103 -0.10323,-0.46935 -0.64181,-0.85291 -0.98758,-1.14449 M 99.847374,161.75 c -1.828639,0.36576 -1.386694,2.65137 0.478876,2.25413 1.91848,-0.40851 1.24122,-2.59816 -0.478876,-2.25413 m 0.638506,0.24142 c 0.43207,1.39741 -0.1533,2.02296 -1.596278,1.59627 l 0.478886,-0.47887 -0.159629,-0.95778 1.277021,-0.15962 m 8.61989,0.31925 -0.15963,0.15963 0.15963,-0.15963 m -78.856038,0.15963 -0.159628,0.15963 0.159628,-0.15963 m 120.997728,0.15963 -0.15963,0.15963 0.15963,-0.15963 m 13.08946,0.63851 -1.11739,1.1174 0.31925,-0.31926 h 0.15963 0.15963 c 0.56115,0.63706 0.72265,-0.34997 0.79814,-0.79814 h -0.31926 m -156.2754265,1.7559 0.1596276,0.15963 -0.1596276,-0.15963 m 22.1882385,0 -0.159628,0.15963 0.159628,-0.15963 m 28.73297,0.47889 -0.159627,0.15963 0.159627,-0.15963 m -49.0056772,0.31925 -0.1596276,0.15963 0.1596276,-0.15963 m 52.6771132,0.15963 -0.159628,0.15962 0.159628,-0.15962 m -55.8696654,0.15962 -0.1596276,0.15963 0.1596276,-0.15963 m 56.5081754,0.63852 -0.159628,0.15963 0.159628,-0.15963 m -45.334242,2.07516 -0.159628,0.15962 z"
       id="path1" /><path
       d="m 207.76977,168.64724 c -0.63002,-0.38237 -0.38412,-0.76765 0.48994,-0.76765 0.44893,0 0.90103,-0.11045 1.00467,-0.24546 0.10365,-0.13501 0.41561,-0.99659 0.69325,-1.91464 1.40893,-4.65879 1.66053,-5.37031 2.00407,-5.66779 0.91931,-0.79604 0.93545,-0.83601 0.79752,-1.97704 -0.0727,-0.60155 -0.15405,-1.49138 -0.18076,-1.97741 -0.0266,-0.48601 -0.12335,-1.10459 -0.21477,-1.3746 -0.0914,-0.27001 -0.16604,-1.21973 -0.16583,-2.11048 2e-4,-0.89075 -0.0501,-1.61979 -0.11167,-1.62007 -0.0616,-2.9e-4 -0.38281,0.0989 -0.71376,0.2204 -1.77765,0.65262 -2.23984,-1.58146 -0.69041,-3.33721 0.91919,-1.04157 1.52227,-1.21978 4.02964,-1.19077 1.21952,0.0141 2.3066,-0.0325 2.41576,-0.10351 0.12832,-0.0835 0.19846,-1.36924 0.19846,-3.63827 0,-2.92825 0.0485,-3.56016 0.29301,-3.81768 0.24556,-0.2586 0.85986,-0.30858 3.79355,-0.30858 3.15445,0 3.53104,0.0356 3.80912,0.35912 0.26335,0.30646 0.30859,0.88299 0.30859,3.9323 v 3.57321 l 3.01977,-0.0539 3.01977,-0.0539 0.37773,-0.68155 c 0.20775,-0.37485 0.43089,-1.22264 0.49588,-1.884 0.0796,-0.81016 0.26203,-1.40735 0.55911,-1.83053 0.33478,-0.47686 0.45132,-0.92157 0.48415,-1.84708 0.0351,-0.9919 0.18766,-1.51406 0.81858,-2.80283 0.44,-0.89878 1.00032,-1.74305 1.29543,-1.95195 0.28881,-0.20442 0.60917,-0.6814 0.7205,-1.07271 0.30353,-1.06692 1.6802,-2.83845 2.73655,-3.52142 1.0398,-0.67229 1.48175,-0.7574 1.64248,-0.31629 0.083,0.22748 0.21294,0.24975 0.58598,0.10038 0.37363,-0.14961 0.50309,-0.12711 0.58654,0.10188 0.17235,0.47302 -0.10942,1.67223 -0.70099,2.9834 -0.66553,1.47509 -0.59696,1.65678 0.97051,2.57124 1.51949,0.88648 1.84763,1.30266 1.84763,2.34336 0,1.0559 -0.40524,1.92592 -0.97146,2.08566 -0.23485,0.0663 -1.11923,0.12168 -1.9653,0.12315 l -1.5383,0.003 v 3.10268 c 0,2.10399 -0.0701,3.17652 -0.21777,3.33204 -0.13227,0.13931 -0.20025,0.738 -0.17316,1.52515 0.0317,0.9225 -0.0416,1.4343 -0.25445,1.77649 -0.22435,0.36063 -0.26851,0.72318 -0.17676,1.45155 0.0996,0.79057 0.0488,1.10207 -0.27363,1.67754 -0.21775,0.38869 -0.39592,0.83113 -0.39592,0.98321 0,0.43871 -1.14732,1.69737 -1.81507,1.9912 -0.33491,0.14737 -0.60891,0.30199 -0.60891,0.34356 0,0.0416 0.42638,0.94618 0.94751,2.01019 0.93206,1.90304 0.9541,1.98896 1.35183,5.27289 l 0.40434,3.33833 1.19741,0.0982 c 1.299,0.10652 1.67775,0.45551 0.85284,0.78581 -0.68136,0.27283 -32.13265,0.25527 -32.5832,-0.0182 z m 9.67205,-1.05372 c 0.0537,-0.14718 -0.0283,-0.52392 -0.1822,-0.83723 -0.15384,-0.3133 -0.50556,-1.40379 -0.78158,-2.42329 -0.68499,-2.52989 -0.61687,-2.45298 -1.53958,-1.73835 -0.90713,0.70257 -3.97141,4.8071 -3.84621,5.15189 0.12934,0.35618 6.2175,0.20946 6.34957,-0.15302 z m 19.14773,0.10586 c 0.0833,-0.0871 -0.37693,-1.19937 -1.02274,-2.47165 -0.98272,-1.93608 -1.32664,-2.43083 -2.10928,-3.0345 -1.38161,-1.06566 -1.38182,-1.06574 -1.57823,-0.56028 -0.097,0.24952 -0.92487,1.6908 -1.83982,3.20287 -0.91494,1.51207 -1.63175,2.83758 -1.59292,2.94559 0.085,0.23636 7.91402,0.1575 8.14299,-0.0821 z m -10.22116,-0.0476 c 0.0674,-0.0712 0.17056,-1.80577 0.22933,-3.85454 l 0.10685,-3.72503 -1.31935,-0.0785 c -0.90429,-0.0538 -1.43095,-0.18487 -1.67405,-0.41657 -0.66132,-0.6303 -1.18665,-0.42397 -2.51806,0.98904 l -1.25043,1.32708 -0.15694,2.74765 c -0.10208,1.78721 -0.0918,2.83782 0.0296,3.00561 0.14417,0.19948 0.89445,0.244 3.30854,0.19637 1.71716,-0.0338 3.17721,-0.11986 3.24459,-0.1911 z m -7.55368,-1.81257 c 0.002,-0.86289 -0.0774,-1.21836 -0.31309,-1.39989 -0.29696,-0.22867 -0.29696,-0.27383 0,-0.75114 0.17377,-0.27929 0.31595,-0.78184 0.31595,-1.11677 0,-0.82749 0.2479,-1.25719 1.42132,-2.46372 0.55146,-0.56702 0.99988,-1.10489 0.99647,-1.19524 -0.0129,-0.34201 -0.70909,-1.0324 -1.16168,-1.15203 -0.419,-0.11077 -0.49729,-0.0412 -0.70621,0.62796 -0.13832,0.44304 -0.73344,1.29697 -1.44701,2.07634 l -1.21205,1.32383 0.29834,0.73809 c 0.16408,0.40594 0.56895,1.69112 0.89971,2.85594 0.65031,2.29022 0.90341,2.41747 0.90825,0.45663 z m 9.32589,0.24253 c 0,-0.1578 0.82991,-1.57593 2.17187,-3.71124 0.52681,-0.83824 0.5409,-0.97132 0.10295,-0.97132 -0.18459,0 -0.43238,-0.10191 -0.55064,-0.22645 -0.35588,-0.37478 0.0705,-0.95177 0.70326,-0.95177 0.74619,0 2.4193,-1.61711 2.4234,-2.34228 0.005,-0.70391 0.18384,-0.92547 0.88056,-1.08465 0.69946,-0.15981 1.35411,-0.93675 1.35411,-1.60705 0,-0.36604 0.10002,-0.46445 0.472,-0.46445 0.2596,0 0.51827,0.12696 0.57482,0.28216 0.16465,0.45187 0.59722,0.13257 0.73699,-0.54403 0.0707,-0.342 0.24359,-0.79611 0.38431,-1.00915 0.33197,-0.50256 0.32512,-1.11033 -0.0179,-1.58795 -0.40278,-0.56083 -0.34885,-0.84871 0.27376,-1.46122 0.61209,-0.60217 0.66564,-0.95266 0.34832,-2.27987 -0.18923,-0.79142 -0.173,-0.92015 0.15673,-1.24366 0.34381,-0.33734 0.362,-0.56169 0.27897,-3.43878 -0.0488,-1.69285 -0.0145,-3.15541 0.0763,-3.25014 0.0909,-0.0947 1.01149,-0.23325 2.04586,-0.30781 1.86381,-0.13435 1.87989,-0.13984 1.7941,-0.61245 -0.0659,-0.36348 0.008,-0.50287 0.31024,-0.58616 0.21824,-0.0601 0.3968,-0.18793 0.3968,-0.28404 0,-0.1828 -1.75818,-1.40997 -3.58938,-2.50528 -0.58967,-0.35272 -1.07215,-0.75422 -1.07215,-0.89221 0,-0.138 0.19581,-0.63963 0.4351,-1.11473 0.2393,-0.4751 0.49063,-1.09847 0.55849,-1.38522 0.10655,-0.45018 0.0732,-0.50757 -0.24416,-0.42017 -0.46628,0.12841 -1.56547,1.8603 -1.87757,2.95829 -0.16518,0.58116 -0.42251,0.95837 -0.83838,1.22907 -0.33003,0.21481 -0.70573,0.67697 -0.83492,1.02704 -0.12918,0.35006 -0.4425,0.96536 -0.69628,1.36735 -0.36937,0.58509 -0.43633,0.87173 -0.33563,1.43694 0.12808,0.71902 -0.33351,2.64331 -0.63406,2.64331 -0.0819,0 -0.25082,0.25925 -0.37546,0.57615 -0.28999,0.7373 -0.0901,1.72542 0.38078,1.88282 0.23232,0.0777 0.35997,0.29883 0.35997,0.62372 0,0.46593 -0.0487,0.49507 -0.65464,0.39151 -0.61098,-0.10441 -0.67883,-0.0619 -1.01758,0.63739 -0.44602,0.92071 -0.61921,0.99408 -2.34668,0.99408 h -1.37793 l -0.0519,2.70012 -0.0518,2.70013 -3.52915,0.0536 c -2.69869,0.041 -3.56457,-0.005 -3.67973,-0.19635 -0.0829,-0.13748 -0.15191,-1.37663 -0.15347,-2.75369 l -0.003,-2.50375 h -4.67588 -4.67585 l -0.5355,0.56396 c -0.64317,0.67736 -0.90711,1.56307 -0.53747,1.80366 0.15289,0.0995 0.36714,0.0649 0.53801,-0.087 0.15616,-0.13874 0.55058,-0.36326 0.87647,-0.49893 0.32588,-0.13566 0.73744,-0.41532 0.91458,-0.62146 0.65556,-0.7629 1.24711,-0.28733 0.70479,0.5666 -0.58237,0.91698 -0.96131,2.26476 -0.78106,2.77792 0.0897,0.25544 0.14012,0.77599 0.11198,1.15677 -0.0493,0.66764 -0.0279,0.69284 0.59806,0.70643 0.84432,0.0184 0.98731,0.55913 0.24724,0.93503 -0.46514,0.23624 -0.52076,0.36394 -0.49892,1.14527 0.0135,0.48365 0.0865,1.41321 0.16221,2.06568 l 0.13763,1.18631 -0.67974,0.62853 c -0.54222,0.50138 -0.83236,1.06719 -1.43424,2.79688 -0.415,1.19258 -0.72323,2.26726 -0.68496,2.38816 0.0742,0.23438 1.39141,-1.73274 1.76629,-2.63775 0.12324,-0.29752 0.333,-0.54255 0.46615,-0.54451 0.28993,-0.005 1.20579,-0.65134 3.26632,-2.30765 1.58825,-1.27669 1.67045,-1.41367 2.03689,-3.39427 0.19607,-1.05976 0.85044,-1.22785 1.07712,-0.27669 0.0817,0.34281 0.31302,0.52671 0.8564,0.6808 0.43193,0.12248 0.87068,0.41397 1.0451,0.69434 0.24134,0.38792 0.45694,0.48322 1.09311,0.48322 0.51119,0 0.96145,0.13995 1.26845,0.39429 0.53219,0.44087 2.07187,0.7425 2.24903,0.44058 0.0623,-0.10629 -0.0524,-0.35132 -0.2551,-0.5445 -0.20268,-0.19318 -0.36853,-0.51428 -0.36853,-0.71356 0,-0.55023 0.73532,-0.4398 1.4684,0.22053 l 0.62934,0.56685 -0.07,2.22348 -0.0699,2.22346 0.65261,0.0982 c 0.49724,0.0748 0.65262,0.1917 0.65262,0.49093 0,0.29923 -0.15538,0.41612 -0.65262,0.49093 l -0.65261,0.0982 -0.0558,1.35761 c -0.0497,1.20738 -0.0239,1.32968 0.23308,1.1051 0.15891,-0.13889 0.28891,-0.33291 0.28891,-0.43118 z m 11.02391,-28.30182 c -0.38432,-0.40473 -0.24572,-0.92723 0.24596,-0.92723 0.52091,0 0.71281,0.22564 0.55658,0.6544 -0.14732,0.4043 -0.54828,0.54062 -0.80254,0.27283 z m -2.31536,26.31702 c -0.11509,-1.29791 -0.27204,-1.91221 -0.48859,-1.91221 -0.072,0 -0.28749,0.12061 -0.47892,0.26802 -0.33592,0.2587 -0.33068,0.303 0.15082,1.27281 0.27438,0.55263 0.49887,1.13895 0.49887,1.30296 0,0.16398 0.0961,0.29817 0.21343,0.29817 0.14915,0 0.18058,-0.37038 0.10439,-1.22975 z m -1.24085,-2.60456 c 0.30256,-0.16478 0.55012,-0.39114 0.55012,-0.50304 0,-0.2743 -1.31984,-3.11113 -1.5029,-3.23029 -0.19614,-0.12766 -0.73464,0.45874 -0.73464,0.79999 0,0.15053 -0.26132,0.58715 -0.58074,0.97028 l -0.58074,0.69659 0.81381,0.77498 c 0.8994,0.85647 1.2219,0.93435 2.03509,0.49149 z m -10.8743,-9.27355 c 0.0821,-0.189 0.14797,-1.22731 0.1464,-2.30736 l -0.003,-1.96373 h -1.20069 -1.20069 l 0.0508,2.15631 c 0.0279,1.18597 0.0908,2.22428 0.13955,2.30737 0.0487,0.083 0.50027,0.15106 1.00337,0.15106 0.69002,0 0.95141,-0.0844 1.06401,-0.34365 z m 2.85948,0.14037 c 0.32258,-0.18181 0.36065,-0.4284 0.36065,-2.33498 v -2.13169 l -0.69921,-0.0872 c -1.35096,-0.16843 -1.35185,-0.16693 -1.35185,2.30903 0,1.59147 0.0659,2.24703 0.23309,2.31806 0.40421,0.17178 1.08316,0.13765 1.45732,-0.0732 z m -6.72484,-7.16068 v -1.47278 h -1.30523 -1.30523 v 1.34188 c 0,0.73802 0.0559,1.40078 0.12431,1.47278 0.0684,0.072 0.65572,0.13092 1.30523,0.13092 h 1.18092 z m 3.50431,-0.049 0.0548,-1.4237 h -1.20021 c -1.33167,0 -1.42845,0.0912 -1.42402,1.34157 0.006,1.52125 0.0993,1.62816 1.3732,1.56364 l 1.14147,-0.0578 z m -3.50431,-3.09287 c 0,-0.48002 -0.0844,-0.6873 -0.27969,-0.6873 -0.15383,0 -0.29018,-0.0884 -0.30301,-0.19636 -0.0128,-0.10801 -0.0443,-0.28475 -0.0699,-0.39275 -0.0257,-0.10801 -0.0571,-0.37796 -0.0699,-0.59987 -0.0205,-0.35613 -0.1273,-0.39649 -0.90899,-0.34366 l -0.8857,0.0599 -0.0567,1.15624 c -0.0812,1.65751 -0.0542,1.69116 1.35606,1.69116 h 1.21784 z m 3.50452,-0.8457 0.0549,-1.43482 -0.89407,0.0602 c -0.83989,0.0566 -0.89788,0.0959 -0.95693,0.64933 -0.0346,0.32402 -0.22905,0.7528 -0.43219,0.95282 -0.20312,0.20004 -0.32167,0.49448 -0.26343,0.65428 0.0582,0.15982 0.10587,0.37592 0.10587,0.48025 0,0.108 0.50184,0.1645 1.16538,0.13122 l 1.16538,-0.0585 z m 17.87631,27.51963 c -0.20958,-0.22071 -0.13801,-0.81336 0.10876,-0.90082 0.41701,-0.14776 0.8857,0.0875 0.8857,0.44451 0,0.45099 -0.69618,0.77044 -0.99446,0.45631 z m 2.53276,0.003 c -0.12819,-0.0558 -0.23308,-0.27068 -0.23308,-0.47767 0,-0.2892 0.1326,-0.3764 0.57235,-0.3764 0.48621,0 0.56338,0.0662 0.51276,0.43983 -0.0592,0.43778 -0.40793,0.60728 -0.85203,0.41424 z m -39.57629,-0.46132 c 0,-0.28801 0.12431,-0.39275 0.46614,-0.39275 0.34185,0 0.46615,0.10474 0.46615,0.39275 0,0.28802 -0.1243,0.39273 -0.46615,0.39273 -0.34183,0 -0.46614,-0.10471 -0.46614,-0.39273 z m 2.86434,-10.30916 c -0.125,-0.34302 0.0366,-0.88368 0.26399,-0.88368 0.37226,0 0.8416,0.54971 0.73026,0.85527 -0.1472,0.40401 -0.85009,0.42407 -0.99425,0.0285 z m 2.30227,0.17193 c -0.25814,-0.27187 -0.12687,-0.81489 0.22011,-0.91045 0.48383,-0.13325 0.81659,0.12238 0.73631,0.56568 -0.0673,0.37169 -0.71065,0.6036 -0.95642,0.34477 z m -6.46751,-2.39758 c -0.10493,-0.0359 -0.1908,-0.22446 -0.1908,-0.41878 0,-0.32266 0.27117,-0.36089 3.12323,-0.44057 1.71777,-0.0479 3.22809,-0.0489 3.35629,-0.002 0.37858,0.1384 0.26608,0.79118 -0.16096,0.93392 -0.37753,0.1262 -5.7333,0.0628 -6.12776,-0.0725 z m 1.98458,-2.52013 c -0.21,-0.22115 -0.13776,-0.80489 0.10877,-0.87903 0.12819,-0.0387 1.21899,-0.0427 2.42399,-0.009 2.18235,0.0607 2.19091,0.0629 2.19091,0.54001 v 0.47905 h -2.29968 c -1.26482,0 -2.35562,-0.0589 -2.42399,-0.13092 z m 1.00306,-9.77474 c -0.33848,-0.42953 -0.0972,-0.93514 0.41011,-0.85928 0.30746,0.0459 0.42037,0.194 0.42037,0.55112 0,0.57295 -0.48112,0.75149 -0.83048,0.30816 z m 2.10681,-0.21584 c -0.0608,-0.16665 -0.069,-0.34661 -0.0185,-0.39988 0.0506,-0.0533 1.00492,-0.11575 2.12073,-0.13881 1.97575,-0.0408 2.0303,-0.0304 2.08833,0.39988 0.0588,0.43544 0.0297,0.44185 -2.01031,0.44185 -1.69361,0 -2.08995,-0.0551 -2.1803,-0.30304 z m 1.52058,-2.20663 c -0.54977,-0.11986 -0.7432,-0.37893 -0.50684,-0.67885 0.27858,-0.35353 3.40196,-0.4331 3.82817,-0.0975 0.16923,0.13325 0.24633,0.34233 0.17131,0.46462 -0.13764,0.22445 -2.80217,0.46228 -3.49264,0.31176 z"
       style="fill:#000000;stroke-width:0.742192"
       id="path1-7" /></g></svg>
