<?xml version="1.0" encoding="UTF-8" standalone="no"?>
<!-- Created with Inkscape (http://www.inkscape.org/) -->

<svg
   style="background-color:white; border: 3px solid white;"
   width="207.60973mm"
   height="43.875675mm"
   viewBox="0 0 210.60973 46.875675"
   version="1.1"
   id="svg1"
   xml:space="preserve"
   inkscape:export-filename="bitmap.svg"
   inkscape:export-xdpi="60.476189"
   inkscape:export-ydpi="60.476189"
   xmlns:inkscape="http://www.inkscape.org/namespaces/inkscape"
   xmlns:sodipodi="http://sodipodi.sourceforge.net/DTD/sodipodi-0.dtd"
   xmlns="http://www.w3.org/2000/svg"
   xmlns:svg="http://www.w3.org/2000/svg"><sodipodi:namedview
     id="namedview1"
     pagecolor="white"
     bordercolor="#eeeeee"
     borderopacity="1"/><defs
     id="defs1" /><g
     inkscape:label="Layer 1"
     inkscape:groupmode="layer"
     id="layer1"
     transform="translate(-4.3805333,-126.34886)"><path
       style="fill:black;stroke:none"
       d="m 105.09859,142.32171 c 0.54872,-1.61774 0.3445,-3.10735 0.4697,-4.76318 0.25844,-3.41802 0.70224,-6.64199 0.0595,-10.05349 1.70927,-0.25244 3.15656,-1.01962 4.93889,-0.57149 2.25969,0.56815 6.61261,3.4885 4.12145,6.17823 -1.62372,1.75315 -5.80754,2.0326 -8.00201,1.62521 l -0.17639,0.70555 c 1.94409,0.88148 4.17439,3.33929 5.53707,4.96883 0.64344,0.76947 1.64048,2.6674 2.74722,2.80685 1.33146,0.16776 -0.58534,-2.21272 -0.79021,-2.48415 -1.40842,-1.86595 -3.59273,-4.29476 -5.73019,-5.29153 2.64089,-0.78792 6.4709,-0.3446 8.03278,-3.20481 0.85846,-1.57206 -0.65552,-3.47094 -1.85671,-4.29267 -2.38397,-1.63085 -4.80228,-1.97007 -7.58718,-1.20886 -0.53223,0.14548 -1.76055,0.29204 -2.13545,0.70079 -0.5886,0.64175 -0.0604,1.98611 0.0878,2.71388 0.33504,1.64527 0.0998,3.61348 0.0667,5.28909 -0.0344,1.73798 -0.26289,3.37616 -0.17258,5.11786 0.038,0.73284 -0.27197,1.28117 0.38966,1.76389 m -21.166665,-15.34584 0.176389,0.17639 -0.176389,-0.17639 m 0.352778,0 v 0.17639 h 0.881944 l -0.881944,-0.17639 m 1.411111,0 -2.116667,0.17639 0.176389,0.35278 h -0.176389 l -0.705555,-0.35278 v 0.17639 h 0.352777 v 0.17639 l -5.291666,0.17639 c -1.069568,1.00252 -4.907125,0.31098 -6.346733,0.36013 -5.640375,0.19254 -11.527478,-0.76892 -16.936601,1.22737 v 0.35278 c 2.916693,1.35597 6.565787,1.20949 9.703973,1.10937 4.235685,-0.13514 8.452326,-0.31383 12.697416,-0.1738 1.377985,0.0454 2.889326,-0.17042 4.233334,0.12276 l -1.234723,1.05833 v 0.52917 l -0.352777,-0.17639 v 0.52917 l -2.643385,2.2887 -6.352449,6.53074 0.176389,0.35278 -0.881945,0.35278 v 0.52917 l -0.352777,-0.17639 -4.17944,4.64001 -1.288616,1.35721 -1.763889,2.46944 c -0.727776,0.23936 -1.46458,1.01312 -1.5875,1.76389 l -1.058333,0.35278 -0.176389,0.35278 -1.763889,2.99861 H 57.65003 c -0.713377,-1.01272 -1.892079,-2.48186 -3.175,-2.64583 l -0.176389,-0.17639 0.176389,-0.35278 c -0.827959,-0.0662 -1.645329,-1.29328 -2.384243,-1.05724 -1.550433,0.49527 0.313051,2.81273 0.812531,3.3503 1.675775,1.80357 3.480133,3.63841 5.321612,5.26961 0.868573,0.7694 2.446589,1.87896 2.776489,3.02066 1.422098,0.41957 3.592481,3.27467 4.233333,4.58611 h 0.176339 l -0.176389,-0.35277 h 0.176389 l 0.705556,1.05833 c 0.622991,0.50579 2.123557,1.70555 2.822222,0.70556 1.371423,-0.25105 1.390532,-2.57105 0,-2.82223 l -0.705556,-0.88194 -0.529166,0.35278 -0.352778,-0.17639 0.176389,-0.52917 -0.705556,0.17639 -0.352777,-1.05833 -0.529167,0.17639 c -0.782543,-1.75579 -2.546669,-3.07576 -3.880556,-4.40973 -0.431977,-0.432 -1.384293,-1.09213 -1.404032,-1.76389 -0.03453,-1.17515 1.554104,-2.23229 1.580421,-3.52777 l 1.411111,-1.5875 1.058334,-1.5875 -0.176389,-0.35278 4.409722,-4.23333 -0.176389,-0.35278 c 1.284052,-0.50385 3.11687,-2.13175 3.351389,-3.52778 l 0.176389,-0.17639 0.352778,0.17639 1.058333,-1.23472 0.881945,-0.88195 0.176389,-0.17639 c 0.326654,-2.61392 4.482984,-4.12964 5.644444,-6.35 l 0.352778,0.17639 c 1.731494,-1.98507 3.986212,-3.7802 6.35,-4.93889 l -0.176389,0.35278 c 1.463348,-0.99128 1.370061,-1.79776 1.058334,-3.35139 l -2.293056,-0.35278 m -59.090279,0.35278 0.176388,0.17639 -0.176388,-0.17639 m -13.229167,1.76389 v 0.35278 c 4.160851,1.02506 8.795848,0.427 13.053459,1.17702 1.468431,0.25867 3.803334,0.1965 4.938208,1.29242 l 1.763889,-0.17639 v -0.52916 l 0.529166,0.17639 v -0.88195 h 0.176389 v 0.35278 h 0.176389 l -0.176389,-0.70556 0.352778,0.17639 -0.352778,-0.35277 c 0.333895,-0.39565 0.398014,-0.7085 -0.176389,-0.70556 l 0.176389,-0.70556 -0.529166,-0.52916 h -1.411112 v -0.17639 h 0.352778 v -0.17639 l -0.529167,0.35278 c -5.625445,-1.04433 -12.89566,-0.7862 -18.344444,1.05833 m 19.579167,-1.05833 -0.176389,0.17639 0.176389,-0.17639 m 0.999538,1.35231 -0.0588,0.1176 0.0588,-0.1176 m -6.820372,0.94074 -0.176389,0.17639 0.176389,-0.17639 m 54.151391,0.70556 -0.176389,0.17639 0.176389,-0.17639 m -50.447224,0.17639 -0.176389,0.17639 0.176389,-0.17639 m 50.094446,0 -0.176389,0.17639 0.176389,-0.17639 m -49.741668,0.17639 -0.176389,0.17639 0.176389,-0.17639 m 1.940278,0 -0.176389,0.17639 0.176389,-0.17639 m -0.529167,0.35277 0.176389,0.17639 -0.176389,-0.17639 m 46.919446,0.88195 -0.529167,0.52917 0.529167,-0.52917 m 38.981947,2.82222 c 1.39086,-0.0597 2.87197,-0.47681 4.24911,-0.092 3.08716,0.86262 3.43529,4.32977 2.80644,6.97117 l -0.52916,-0.35278 c -1.00966,0.53416 -3.9037,0.70955 -4.93821,0.18537 -2.15096,-1.08985 -1.05054,-3.08921 0.70501,-3.76881 0.51697,-0.20013 1.04359,-0.46644 1.58736,-0.58116 0.93444,-0.19714 1.90821,0.10679 2.82223,0.28405 -0.16139,-0.75309 -1.26376,-0.6993 -1.94028,-0.70556 -1.80144,-0.0167 -4.21381,0.84998 -5.20348,2.46944 -0.25384,0.4154 -0.15634,0.78195 -0.10289,1.23473 0.38953,3.29957 4.46722,1.39193 6.71748,1.71489 0.56901,0.0817 1.03499,0.58044 1.5875,0.75455 0.54628,-1.84397 1.11112,-5.31749 0.008,-7.02493 -1.31,-2.02746 -3.60932,-1.84328 -5.65234,-1.64807 -0.80206,0.0766 -1.59983,-0.15753 -2.11666,0.55911 m 38.62916,6.17361 c -1.82739,-0.309 -3.63973,0.59408 -5.46737,-0.24975 -3.15963,-1.4588 -0.92761,-3.64748 1.58682,-3.79072 1.16788,-0.0665 2.24735,0.58959 3.35139,0.5127 -1.62812,-2.28353 -8.95202,-0.40511 -7.41854,2.98894 1.13171,2.50485 5.36336,0.59213 7.22555,0.96347 0.63161,0.12595 0.91742,1.41392 1.55755,1.20669 0.50995,-0.16509 0.28698,-0.91146 0.22294,-1.27855 1.2385,0.39111 0.58853,-1.24779 0.35278,-0.70555 -0.68507,-1.93237 0.19475,-4.87599 -2.12361,-5.98402 -1.57918,-0.75474 -4.27621,-0.69996 -5.99028,-0.56606 -0.33635,0.0263 -2.08773,-0.27915 -1.80772,0.47922 0.14125,0.38254 0.64864,0.21401 0.92659,0.14073 1.10655,-0.29174 2.21676,-0.18708 3.35057,-0.0663 3.45002,0.36758 4.65332,3.03356 4.23333,6.34918 m -25.22361,-6.35 -0.17639,7.58473 c 1.12238,0.17149 0.94035,-1.28793 1.02908,-2.11667 0.20721,-1.93548 0.70852,-4.28638 2.85148,-4.93889 0.60001,1.84083 0.81585,3.37577 0.97532,5.29235 0.0291,0.3499 -0.10854,1.7421 0.59898,1.50543 0.56001,-0.18733 0.37612,-1.07147 0.36843,-1.50611 -0.0208,-1.17973 0.23151,-6.13842 2.63834,-4.94461 1.59932,0.79328 2.01832,3.73423 1.96737,5.29738 -0.0332,1.01948 -0.41367,2.36793 0.85989,2.64584 -0.0389,-2.17409 0.58584,-5.22385 -0.43321,-7.23181 -1.23681,-2.43706 -4.43416,-1.43399 -5.03484,0.88181 h -0.17639 c -0.0275,-3.2847 -3.59849,-2.75891 -4.23333,0 -0.43886,-0.91193 -0.0367,-2.26951 -1.23473,-2.46945 m -92.251387,1.23472 v 0.17639 H 40.0112 v 0.17639 l -0.529166,-0.35278 -2.822222,0.52917 c -2.344552,-0.85329 -5.151834,-0.0968 -7.585404,-0.006 -4.967976,0.18461 -9.892228,0.012 -14.845929,0.47732 -1.63529,0.15359 -5.6106774,-0.28019 -6.6728353,1.11658 -0.8478515,-0.20543 -2.1804508,0.17908 -2.4694445,1.05834 l 5.1152778,0.17638 v -0.35277 c 3.131866,0.68686 6.703301,-0.27242 9.877779,-0.3502 6.387341,-0.15648 12.821983,0.11619 19.226389,-0.003 l -0.529167,2.64583 c 0.419844,5.92403 -1.912227,12.02719 -5.748562,16.58056 -1.06251,1.2611 -2.830625,3.43916 -4.481994,3.88055 3e-6,0.64277 -1.337652,1.14761 -1.940277,1.05834 l -1.058334,0.88194 -0.529166,-0.17639 c 2e-6,0.79054 -2.155333,1.0093 -2.822223,1.23472 -2.500329,0.84519 -7.247033,1.69176 -9.701389,0.52917 -0.183043,0.36609 -2.094709,0.26495 -1.940278,-0.35278 L 9.8486993,165.605 9.6723104,165.07584 H 9.4958115 c 0.1232739,0.61636 -0.4511514,0.39349 -0.3527778,0 L 8.613867,165.25222 8.2610892,164.54667 H 8.0847003 L 7.7319226,164.89949 7.026367,164.19393 H 6.8499781 l -2.4694445,1.05833 0.7055556,1.41112 c 4.9286098,1.81077 10.1226928,2.48144 15.3458338,1.60151 1.370914,-0.23095 4.100991,-0.37729 4.938889,-1.60151 l 1.411111,-0.52917 c 1.033045,0.0684 2.664739,-0.8587 3.175001,-1.76389 l 0.881944,-0.52917 1.234722,-0.17639 1.058334,-0.88194 0.529166,-0.70556 0.705556,-1.41111 c 0.868667,-0.0527 1.352273,-0.76387 1.411111,-1.5875 l 0.529167,0.17639 c 0.913381,-1.57532 2.636897,-3.74567 2.469444,-5.64444 0.497198,0 0.464544,-0.25065 0.352778,-0.70556 l 0.352778,-0.52916 h 0.352778 l -0.176389,-0.35278 h 0.352777 l 0.176389,-0.35278 -0.176389,-0.52917 0.705556,-0.88194 0.176389,-0.52917 0.865203,-5.14522 0.545908,-2.96867 c -0.110232,-1.07268 0.253376,-2.95683 1.234722,-3.52777 v -0.17639 l -0.529166,-0.70556 v -0.17639 l 0.352777,-0.35278 -0.529166,0.17639 -0.176389,-0.70555 -2.998611,0.35277 m -2.116667,0.35278 -0.176389,0.17639 0.176389,-0.17639 m 5.820833,0.17639 0.176389,0.17639 -0.176389,-0.17639 m 89.605561,0.70556 -0.17639,0.17639 0.17639,-0.17639 m -89.781949,0.88194 0.176388,0.17639 -0.176388,-0.17639 m 28.927778,1.76389 -0.176389,0.17639 0.176389,-0.17639 m 2.469445,0.88195 -0.176389,0.17638 0.176389,-0.17638 m 82.726386,0.52916 -0.17639,0.17639 0.17639,-0.17639 m -118.180554,0.70556 -0.176389,0.17639 0.176389,-0.17639 m 31.044445,0.17639 -0.352777,0.35277 0.352777,-0.35277 m -0.529166,0.52916 -0.176389,0.17639 0.176389,-0.17639 m 2.469444,0.70556 -0.705555,0.70555 0.705555,-0.70555 m -3.704167,0.35278 -0.176389,0.17639 0.176389,-0.17639 m 2.645834,0.70555 -0.529167,0.35278 v -0.17639 l 0.529167,-0.17639 m -3.527778,0.17639 -0.529167,0.52917 0.529167,-0.52917 m 2.998611,0.35278 -1.234722,1.41111 1.234722,-1.41111 m -3.880556,0.52917 -0.176388,0.17638 0.176388,-0.17638 m -0.529166,0.70555 -0.176389,0.17639 0.176389,-0.17639 m 50.270833,0.17639 c -0.97654,0.92686 -0.34561,2.15947 -0.3755,3.35139 -0.0256,1.02089 -0.41836,1.98844 -0.50644,2.99861 1.35498,-0.29547 1.20246,-2.11164 1.67801,-3.17418 0.25804,-0.57658 0.80154,-0.90558 1.14421,-1.41193 l -1.23472,0.52917 -0.70556,-2.29306 m -12.34722,1.94028 -0.52917,-0.52917 c 2.91244,-2.59005 5.98189,1.8097 3.81114,4.40006 -0.89783,1.07137 -2.06952,0.83973 -3.28197,1.068 0.74681,-2.00301 1.91606,-3.9987 1.76389,-6.17361 -0.94222,0.34642 -0.85317,1.0774 -1.11972,1.94027 -0.51047,1.65245 -1.86429,3.53445 -1.34973,5.29167 1.29938,-0.72332 3.04986,-0.62898 4.20326,-1.52557 2.65405,-2.06313 1.89662,-5.51833 -1.38104,-6.16871 -0.97933,-0.19433 -3.86391,0.61009 -2.11666,1.69706 m 79.375,3.52778 -1.05833,0.70555 1.05833,-0.35278 -0.17639,4.40973 h -0.17639 l -0.17639,-1.5875 h -0.17639 c -0.20509,0.94929 0.0591,2.76023 0.88195,3.35138 l 0.81199,-6.13604 1.12829,-1.27229 -1.23473,0.52917 c 0,-1.14724 -0.17793,-2.51561 0.48113,-3.5271 0.70418,-1.08072 1.76424,-1.56113 2.51749,-0.35346 0.38225,-1.43731 -1.62282,-1.05917 -2.28598,-0.48888 -1.43587,1.23479 -1.59458,2.95905 -1.59458,4.72222 m -114.65278,-4.93889 -0.176389,0.17639 0.176389,-0.17639 m -3.351389,0.17639 -0.529167,0.52916 0.529167,-0.52916 m 61.559719,5.99722 c 0.0677,-1.57776 -0.15693,-4.79906 2.29306,-4.23334 l 0.17639,-0.17638 c -0.80324,-0.67172 -1.52589,-0.15216 -2.29306,0.35277 l -0.35277,-1.94027 c -1.12129,0.78609 -1.25386,5.52289 0.17638,5.99722 m -16.05139,-5.82084 -0.35277,0.70556 0.88194,-0.17639 v -0.35278 l -0.52917,-0.17639 m 19.40278,0.52917 -0.17639,0.70556 h 0.88195 l -0.70556,-0.70556 m 58.38473,0 -1.41111,5.46806 0.70555,0.17639 c 0.63401,-2.19661 1.93912,-4.29683 4.40972,-4.40973 v -0.35277 c -1.3539,0.059 -2.35214,0.50186 -3.35139,1.41111 v -2.29306 h -0.35277 m -14.64028,4.93889 0.17639,-0.52917 -1.23472,1.05834 c 1.60567,-0.20293 3.18542,0.0293 4.58611,-0.88195 0.31608,1.97654 3.33537,0.0417 3.77481,-1.06527 0.66818,-1.68318 -0.95787,-2.45699 -2.3445,-1.67638 -0.7877,0.44344 -0.78292,1.60911 -1.07754,2.38887 h -0.17638 l -2.99862,-2.46944 1.94028,-0.52917 c -0.90244,-0.0983 -3.33115,0.43056 -2.43514,1.86638 0.46502,0.74518 1.63965,0.37008 2.12618,1.04309 0.69109,0.95597 -1.9277,0.87454 -2.33687,0.7947 m -110.419448,-3.70417 -0.352778,0.35278 0.352778,-0.35278 m 140.405558,0 -1.76389,1.76389 h -0.17639 l -0.52916,-0.70555 -0.17639,3.175 c 1.09371,-0.37489 0.57643,-1.34527 1.04907,-2.14593 0.46412,-0.78623 1.35302,-1.23889 1.94954,-1.91102 l -0.35278,-0.17639 m -94.01528,4.05695 c 0.98478,-0.64001 1.30613,-2.77748 1.05833,-3.88056 -1.01867,0.56128 -1.36271,2.82074 -1.05833,3.88056 m 1.76389,0.35278 0.17639,-0.70556 h -0.17639 l -0.35278,0.88194 c 0.73821,0.26115 3.7307,0.1308 3.37072,-1.22832 -0.20756,-0.78366 -1.48756,-1.38371 -2.136,-1.77029 v -0.17639 l 1.5875,-0.88194 c -0.78742,-0.57189 -2.39524,0.36102 -2.28652,1.39464 0.0912,0.86681 3.24924,2.02606 0.53053,2.53695 -0.24819,0.0466 -0.46991,-0.0145 -0.71345,-0.051 m 10.58333,-3.70417 v 3.35139 c 1.84348,0.0599 0.0416,-3.14185 2.46945,-3.52778 v -0.35278 l -2.46945,0.52917 m 14.64028,0.35278 h -0.17639 l -0.17639,-0.70556 c -1.29202,0.57587 -0.4412,2.20101 -0.70555,3.35139 1.36278,0.19899 1.14997,-2.01158 1.41111,-2.99861 1.44792,0.67567 1.69491,1.79009 2.11667,3.175 h 0.35277 c 0.38032,-0.75947 0.68839,-1.49129 0.20143,-2.29047 -0.65796,-1.07983 -2.2819,-1.90867 -3.02365,-0.53175 m 58.56111,-0.88195 c 0.0585,0.44924 0.21666,0.80372 0.33958,1.23486 0.78555,2.75511 -2.30302,-0.091 -2.80902,-0.17652 -0.53653,2.23038 -1.76723,0.69737 -0.35278,0.52916 l -0.17639,-0.70555 -1.76389,1.76389 c 0.57531,1.12694 1.57514,0.55131 2.29306,-0.17639 h 0.17639 c 1.68441,2.12188 4.11377,-0.56473 2.29305,-2.46945 m -48.68333,7.58472 c 1.10254,-0.61195 0.73621,-2.90372 0.88194,-4.05694 1.65796,0.20954 3.20422,0.14602 3.70417,-1.76389 h 0.17639 l 0.35278,2.29306 h 0.70555 c -0.0694,-1.34649 -0.0368,-2.30961 0.88195,-3.35139 h 0.17639 l 0.52916,0.52916 0.17639,-0.52916 -2.82222,0.17639 -0.17639,0.88194 c -1.06434,-1.20482 -4.19171,-2.61629 -5.08751,-0.35006 -0.22316,0.56455 0.21779,1.19838 0.2918,1.76117 0.1837,1.397 -0.43236,3.15139 0.2096,4.40972 m 50.62361,-4.40972 1.05833,-0.52916 0.17639,1.23472 0.70556,0.17639 c 0.1932,-0.81148 0.56887,-2.92471 -0.10643,-3.57256 -0.71167,-0.68275 -2.06626,0.12331 -2.26285,0.9338 -0.14325,0.59064 0.23463,1.21683 0.429,1.75681 m -19.57917,0.70556 c 0.099,-0.88831 0.45303,-1.55082 1.41112,-1.23472 l -0.35278,-0.35278 0.17639,-0.70556 -0.52917,0.17639 c 0.0515,-0.66615 0.82364,-1.89307 1.61254,-1.12121 1.56244,1.52867 -1.17742,2.96694 -2.3181,3.23788 m -30.1625,-0.70556 -0.70555,-2.29305 c 0.94163,-0.29778 1.48646,-0.34564 2.29033,0.31276 1.02768,0.84171 1.39699,2.16888 -0.34979,2.14702 -0.41795,-0.005 -0.82585,-0.0908 -1.23499,-0.16673 m -15.59218,-2.28815 c -1.59866,1.26267 -0.61308,4.5073 1.75014,2.60759 1.6253,-1.30653 -0.18942,-3.8403 -1.75014,-2.60759 m 66.2158,-0.18129 -0.17639,0.17639 0.17639,-0.17639 m 5.99722,1.41111 c 0.52324,0.55373 0.44917,1.52986 1.09862,1.93606 1.67406,1.04703 5.03643,-0.31574 6.4861,-1.23051 v -0.17638 c -2.55635,0.48727 -4.2261,2.22763 -6.35,-0.17639 0.9569,-0.27757 1.97482,-0.55324 2.29306,-1.5875 -1.01034,-0.10606 -3.11504,0.20666 -3.52778,1.23472 m -74.78889,-1.23472 0.17639,3.35139 h 0.35277 c 0.3443,-1.0865 1.16672,-3.21615 -0.52916,-3.35139 m 68.2625,0 -0.52917,1.05833 0.17639,-1.05833 h 0.35278 m -79.19861,1.05833 c 0.14142,-1.08222 2.49236,0.70762 0.52916,1.5287 -0.20852,0.0872 -0.48756,0.0542 -0.70555,0.0588 l 0.52916,-1.23472 c -0.6452,0.36743 -0.80748,0.86581 -0.88194,1.5875 1.02856,-0.003 4.36741,-1.36235 2.26937,-2.56513 -0.49951,-0.28636 -2.54647,-0.13968 -1.7402,0.62485 m 13.05277,1.76389 0.17639,-1.05833 0.70556,0.17638 -0.35278,-0.35277 v -0.17639 l 0.35278,-0.35278 h -0.52917 c 0.33122,-1.98298 2.83775,1.00987 0.70297,1.6629 -0.34045,0.10415 -0.7044,0.0935 -1.05575,0.10099 m 27.16389,-2.64583 0.22417,2.04181 -0.92972,1.66235 1.05833,-0.17639 -0.35278,-0.52916 0.52917,-0.70556 c 1.34984,1.46053 2.7706,0.69419 1.05833,-0.70555 v -0.17639 l 0.88195,-1.05834 c -1.11317,0.44761 -1.46601,0.26779 -2.46945,-0.35277 m 4.7625,3.175 1.41112,-0.52917 -1.23473,4.23333 c 1.26858,-0.41104 1.3768,-3.6062 1.98179,-4.7625 0.38532,-0.73643 0.89384,-1.27393 1.01682,-2.11666 l -2.29305,2.29305 0.17639,-2.11667 c -1.32442,-0.20222 -1.1599,2.08933 -1.05834,2.99862 m 34.57223,-3.175 c 0.33542,0.81769 0.2991,1.3449 -0.52917,1.76388 l 0.52917,-1.76388 m 9.17222,0 -1.5875,0.88194 1.5875,-0.88194 m -52.91667,2.82222 c 0.41182,0.19814 0.76619,0.34135 1.23499,0.32882 0.36055,-0.01 0.7236,-0.0983 1.05548,-0.23763 3.02612,-1.27029 -0.9354,-3.87053 -1.91333,-1.99118 -0.25697,0.49384 -0.22035,1.3372 -0.37714,1.89999 m 1.5875,-2.11667 1.05833,1.76389 -2.29305,0.17639 0.70555,-1.05833 -0.52916,-0.17639 1.05833,-0.70556 m -94.897222,0.70556 -0.176389,0.17639 0.176389,-0.17639 m -21.695834,0.35277 -0.176389,0.17639 0.176389,-0.17639 m 138.230086,0.1176 -0.0588,0.11759 0.0588,-0.11759 m -138.582864,0.58796 -0.176389,0.17639 0.176389,-0.17639 m 134.761114,0 -0.17639,0.17639 0.17639,-0.17639 m -119.062502,0.52917 -0.176389,0.17639 0.176389,-0.17639 m -16.05139,0.17639 -0.176389,0.17638 0.176389,-0.17638 m 13.229167,0 -0.176389,0.17638 0.176389,-0.17638 m -13.405556,0.52916 -0.176389,0.17639 0.176389,-0.17639 m -0.352777,0.70556 -0.176389,0.17639 0.176389,-0.17639 m 18.168056,0 -0.176389,0.17639 0.176389,-0.17639 m 0.529166,0.52916 -0.176389,0.17639 0.176389,-0.17639 m -19.05,0.17639 -0.176389,0.17639 0.176389,-0.17639 m 24.165278,0 -0.176389,0.17639 0.176389,-0.17639 m 55.386108,0.52917 c -1.11763,1.26047 -0.72356,3.69171 -0.88262,5.29167 -0.0433,0.43569 -0.47165,1.4255 -0.0617,1.75572 1.02068,0.82207 3.62444,-0.90997 4.47206,-1.40295 0.35768,2.65383 4.77401,2.32213 5.99722,0.52917 -1.00801,0.27571 -2.28064,1.1448 -3.35124,0.93707 -1.10043,-0.21352 -2.15443,-2.22599 -1.47863,-3.2108 0.28462,-0.41477 1.3776,-0.92786 1.41833,-0.0378 0.0271,0.59251 -0.49278,0.23611 -0.6454,0.0185 l -0.88194,0.35277 c 0.61771,1.12007 1.81218,0.62193 2.29305,-0.35277 -1.26827,-1.28171 -2.51166,-1.24551 -3.175,0.70555 -1.1729,-0.58348 -2.01185,-1.59297 -3.35139,-0.88194 8e-4,-1.1983 0.49143,-2.73255 -0.35278,-3.70417 m -80.080553,0.52917 -0.176389,0.17639 0.176389,-0.17639 m 69.850003,1.76389 v -0.17639 l -2.82222,0.88194 c -2.2e-4,-0.32585 -0.4492,-3.22481 -1.12842,-2.02983 -0.51752,0.91048 -0.27495,3.25116 -0.28215,4.32357 -0.003,0.37816 -0.13837,1.88788 0.63899,1.63064 0.93575,-0.30964 0.37535,-2.49857 0.77647,-3.19528 0.47799,-0.8302 1.99451,-1.04985 2.81733,-1.43465 m -70.37917,-0.88195 -0.176388,0.17639 0.176388,-0.17639 m 97.54306,4.05695 c 0.49659,1.02952 1.31033,1.17897 2.29305,0.70555 0.0231,0.51235 0.55768,1.28929 0.95449,0.49528 0.42954,-0.8595 0.29591,-2.03977 0.63301,-2.96472 0.49508,0.44401 0.91446,0.92153 1.07971,1.5875 0.10034,0.40439 -0.0843,1.14721 0.27546,1.44078 0.5363,0.4376 0.88593,-0.55118 0.91597,-0.9123 0.10978,-1.31968 -1.3091,-2.99996 -2.62391,-2.11598 l -0.88195,-0.70556 c -0.32756,0.68067 -0.0612,2.25164 -0.61383,2.68966 -0.6399,0.5072 -0.98788,-0.89233 -1.08432,-1.26276 -0.41353,-1.58834 -1.86832,-2.00747 -3.20807,-0.82818 -1.34756,1.18616 -1.74373,4.17476 0.84669,3.06516 0.58938,-0.25246 0.99097,-0.73299 1.4137,-1.19443 m 11.46528,-2.64584 c -0.13981,0.47296 -0.37192,4.43292 0.60945,3.58739 0.9721,-0.83753 0.34605,-2.20087 1.6836,-3.05822 0.23954,0.75566 -0.0498,2.52573 0.35945,3.04067 0.29833,0.37539 0.70163,0.10355 0.83499,-0.24526 0.44969,-1.17624 0.19571,-3.871 -1.71926,-2.97058 -0.34719,0.16326 -0.60989,0.44876 -0.88629,0.70434 l -0.35278,-1.05834 h -0.52916 m -110.243062,0.17639 -0.176389,0.17639 0.176389,-0.17639 m 130.001202,0.12726 c -1.55874,0.17494 -2.4408,3.50991 -0.52903,3.37793 2.25805,-0.1559 3.32139,-3.69132 0.52903,-3.37793 m -11.99703,3.40052 c -0.26502,1.28392 -2.14575,6.22713 -0.35278,6.52639 l 1.19171,-5.99722 0.57218,-3.70417 c -1.07006,0.72043 -0.82722,3.05729 -2.41568,3.13308 -1.55921,0.0744 -0.32122,-3.34889 -1.07617,-3.07211 -0.91786,0.33651 -1.19438,2.73699 -0.4886,3.33588 0.7126,0.60468 1.85998,0.13416 2.56934,-0.22185 m 21.51944,0 -1.23472,0.35278 v -0.52917 l -0.88194,1.23472 3.14395,-1.24289 -2.61479,-2.28489 1.76389,-0.52916 c -0.80609,-0.51709 -2.75765,0.23168 -2.30843,1.40349 0.31992,0.83454 1.57127,0.85906 2.13204,1.59512 m -139.700001,-3.175 -0.176389,0.52917 h -0.176349 l 0.352778,-0.52917 m 96.837501,3.175 c -0.42709,-0.88872 -0.27649,-3.67419 1.38443,-3.06081 1.76929,0.6534 -0.48158,2.82513 -1.38443,3.06081 m 27.16389,-2.64583 v 3.175 c 1.24639,-0.21443 1.31727,-1.99503 1.76389,-2.99862 h 0.17639 c 0.21617,0.48645 0.41295,1.98647 0.94864,2.1605 1.21049,0.39325 0.65591,-2.2546 -0.24758,-2.63903 -0.59009,-0.25109 -1.21324,0.29839 -1.7594,0.47853 -0.64225,-0.9905 -1.63531,-0.25538 -2.29305,0.35278 l -0.17639,-1.05833 c -0.98886,0.32711 -0.86971,2.0888 -0.90399,2.99848 -0.0129,0.34235 -0.05,1.17352 0.52835,1.07235 0.59134,-0.10345 0.48991,-1.17818 0.55789,-1.60139 0.13803,-0.85928 0.65138,-1.53654 1.40525,-1.94027 m 4.93889,2.29305 0.52917,-1.5875 -0.52917,0.17639 c 1.03062,-3.65893 3.55667,2.13973 0,1.41111 m -21.32455,-2.51422 c -1.5814,0.64729 -0.87739,3.64658 1.03656,2.92457 1.97879,-0.74646 0.90405,-3.71889 -1.03656,-2.92457 m -25.77129,2.69061 0.52917,-2.11667 c 1.803,-1.28628 3.11944,2.07089 0.52999,2.2721 -0.38364,0.0298 -0.69752,-0.0488 -1.05916,-0.15543 m 26.81112,-2.29306 c -0.2242,1.03115 0.25086,2.77162 -1.41111,2.11667 l 0.52916,-1.41111 -0.70555,0.35278 c 0.11101,-0.98781 0.61923,-1.5338 1.5875,-1.05834 m 26.28194,-0.35277 c 0.19103,1.40346 0.94018,2.59511 -1.05833,2.99861 -0.14292,-0.84742 -0.002,-2.3527 -0.88195,-2.64584 -0.18207,0.5694 -0.41941,1.16361 -0.46846,1.76389 -0.20864,2.55309 3.90133,0.97275 3.50001,-0.852 -0.11407,-0.51863 -0.7092,-0.94246 -1.09127,-1.26466 m -62.79444,0.2624 c -2.02065,0.40416 -1.5323,2.92977 0.52916,2.49081 2.11993,-0.4514 1.37155,-2.87097 -0.52916,-2.49081 m 0.70555,0.26676 c 0.47744,1.54415 -0.1694,2.23538 -1.76389,1.76389 l 0.52917,-0.52916 -0.17639,-1.05834 1.41111,-0.17639 m 9.525,0.35278 -0.17639,0.17639 0.17639,-0.17639 m -87.136111,0.17639 -0.176389,0.17639 0.176389,-0.17639 m 133.702781,0.17639 -0.17639,0.17639 0.17639,-0.17639 m 14.46389,0.70555 -1.23472,1.23473 0.35277,-0.35278 h 0.17639 0.17639 c 0.62008,0.70395 0.79853,-0.38672 0.88195,-0.88195 h -0.35278 m -172.6847275,1.94028 0.1763889,0.17639 -0.1763889,-0.17639 m 24.5180565,0 -0.176389,0.17639 0.176389,-0.17639 m 31.750001,0.52917 -0.176389,0.17639 0.176389,-0.17639 m -54.1513908,0.35278 -0.1763889,0.17639 0.1763889,-0.17639 m 58.2083358,0.17639 -0.176389,0.17638 0.176389,-0.17638 m -61.7361136,0.17638 -0.1763889,0.17639 0.1763889,-0.17639 m 62.4416686,0.70556 -0.176389,0.17639 0.176389,-0.17639 m -50.094446,2.29306 -0.176389,0.17638 z"
       id="path1" /></g></svg>
